<svg width="16" height="16" viewBox="0 0 16 16" fill="none" xmlns="http://www.w3.org/2000/svg">
<path d="M16 0H0V16H16V0Z" fill="#FFD400"/>
<path d="M1.49809 12V5.45455H4.08048C4.5748 5.45455 4.99667 5.54297 5.3461 5.71982C5.69767 5.89453 5.96507 6.14276 6.1483 6.46449C6.33367 6.78409 6.42636 7.16016 6.42636 7.59268C6.42636 8.02734 6.33261 8.40128 6.14511 8.71449C5.95761 9.02557 5.68595 9.2642 5.33012 9.4304C4.97643 9.59659 4.54816 9.67969 4.04532 9.67969H2.31627V8.56747H3.8216C4.0858 8.56747 4.30526 8.53125 4.47998 8.45881C4.6547 8.38636 4.78467 8.2777 4.8699 8.13281C4.95725 7.98793 5.00093 7.80788 5.00093 7.59268C5.00093 7.37536 4.95725 7.19212 4.8699 7.04297C4.78467 6.89382 4.65363 6.78089 4.47678 6.70419C4.30207 6.62536 4.08154 6.58594 3.81521 6.58594H2.88197V12H1.49809ZM5.03289 9.02131L6.65967 12H5.13197L3.54035 9.02131H5.03289Z" fill="#121212"/>
<path d="M7.40434 5.45455H9.11102L10.9136 9.85227H10.9903L12.7928 5.45455H14.4995V12H13.1572V7.7397H13.1028L11.409 11.968H10.4949L8.801 7.72372H8.74667V12H7.40434V5.45455Z" fill="#121212"/>
</svg>
